<?xml version="1.0" encoding="UTF-8" standalone="no"?>
<svg
   xmlns:dc="http://purl.org/dc/elements/1.1/"
   xmlns:cc="http://creativecommons.org/ns#"
   xmlns:rdf="http://www.w3.org/1999/02/22-rdf-syntax-ns#"
   xmlns:svg="http://www.w3.org/2000/svg"
   xmlns="http://www.w3.org/2000/svg"
   xmlns:sodipodi="http://sodipodi.sourceforge.net/DTD/sodipodi-0.dtd"
   xmlns:inkscape="http://www.inkscape.org/namespaces/inkscape"
   role="img"
   viewBox="0 0 24 24"
   version="1.1"
   id="svg6"
   sodipodi:docname="java.svg"
   inkscape:version="1.0.2-2 (e86c870879, 2021-01-15)">
  <metadata
     id="metadata12">
    <rdf:RDF>
      <cc:Work
         rdf:about="">
        <dc:format>image/svg+xml</dc:format>
        <dc:type
           rdf:resource="http://purl.org/dc/dcmitype/StillImage" />
        <dc:title>Java</dc:title>
      </cc:Work>
    </rdf:RDF>
  </metadata>
  <defs
     id="defs10" />
  <sodipodi:namedview
     pagecolor="#ffffff"
     bordercolor="#666666"
     borderopacity="1"
     objecttolerance="10"
     gridtolerance="10"
     guidetolerance="10"
     inkscape:pageopacity="0"
     inkscape:pageshadow="2"
     inkscape:window-width="869"
     inkscape:window-height="480"
     id="namedview8"
     showgrid="false"
     inkscape:zoom="23.958333"
     inkscape:cx="12"
     inkscape:cy="12"
     inkscape:window-x="0"
     inkscape:window-y="0"
     inkscape:window-maximized="0"
     inkscape:current-layer="svg6" />
  <title
     id="title2">Java</title>
  <path
     d="M8.851 18.56s-.917.534.653.714c1.902.218 2.874.187 4.969-.211 0 0 .552.346 1.321.646-4.699 2.013-10.633-.118-6.943-1.149M8.276 15.933s-1.028.761.542.924c2.032.209 3.636.227 6.413-.308 0 0 .384.389.987.602-5.679 1.661-12.007.13-7.942-1.218M13.116 11.475c1.158 1.333-.304 2.533-.304 2.533s2.939-1.518 1.589-3.418c-1.261-1.772-2.228-2.652 3.007-5.688 0-.001-8.216 2.051-4.292 6.573M19.33 20.504s.679.559-.747.991c-2.712.822-11.288 1.069-13.669.033-.856-.373.75-.89 1.254-.998.527-.114.828-.093.828-.093-.953-.671-6.156 1.317-2.643 1.887 9.58 1.553 17.462-.7 14.977-1.82M9.292 13.21s-4.362 1.036-1.544 1.412c1.189.159 3.561.123 5.77-.062 1.806-.152 3.618-.477 3.618-.477s-.637.272-1.098.587c-4.429 1.165-12.986.623-10.522-.568 2.082-1.006 3.776-.892 3.776-.892M17.116 17.584c4.503-2.34 2.421-4.589.968-4.285-.355.074-.515.138-.515.138s.132-.207.385-.297c2.875-1.011 5.086 2.981-.928 4.562 0-.001.07-.062.09-.118M14.401 0s2.494 2.494-2.365 6.33c-3.896 3.077-.888 4.832-.001 6.836-2.274-2.053-3.943-3.858-2.824-5.539 1.644-2.469 6.197-3.665 5.19-7.627M9.734 23.924c4.322.277 10.959-.153 11.116-2.198 0 0-.302.775-3.572 1.391-3.688.694-8.239.613-10.937.168 0-.001.553.457 3.393.639"
     id="path4"
     style="fill:#007396;fill-opacity:1" />
</svg>
