<?xml version="1.0" encoding="UTF-8" standalone="no"?>
<svg
   xmlns:dc="http://purl.org/dc/elements/1.1/"
   xmlns:cc="http://creativecommons.org/ns#"
   xmlns:rdf="http://www.w3.org/1999/02/22-rdf-syntax-ns#"
   xmlns:svg="http://www.w3.org/2000/svg"
   xmlns="http://www.w3.org/2000/svg"
   xmlns:sodipodi="http://sodipodi.sourceforge.net/DTD/sodipodi-0.dtd"
   xmlns:inkscape="http://www.inkscape.org/namespaces/inkscape"
   role="img"
   viewBox="0 0 24 24"
   version="1.1"
   id="svg6"
   sodipodi:docname="ruby.svg"
   inkscape:version="1.0.2-2 (e86c870879, 2021-01-15)">
  <metadata
     id="metadata12">
    <rdf:RDF>
      <cc:Work
         rdf:about="">
        <dc:format>image/svg+xml</dc:format>
        <dc:type
           rdf:resource="http://purl.org/dc/dcmitype/StillImage" />
        <dc:title>Ruby</dc:title>
      </cc:Work>
    </rdf:RDF>
  </metadata>
  <defs
     id="defs10" />
  <sodipodi:namedview
     pagecolor="#ffffff"
     bordercolor="#666666"
     borderopacity="1"
     objecttolerance="10"
     gridtolerance="10"
     guidetolerance="10"
     inkscape:pageopacity="0"
     inkscape:pageshadow="2"
     inkscape:window-width="869"
     inkscape:window-height="480"
     id="namedview8"
     showgrid="false"
     inkscape:zoom="23.958333"
     inkscape:cx="12"
     inkscape:cy="12"
     inkscape:window-x="0"
     inkscape:window-y="0"
     inkscape:window-maximized="0"
     inkscape:current-layer="svg6" />
  <title
     id="title2">Ruby</title>
  <path
     d="M20.156.083c3.033.525 3.893 2.598 3.829 4.77L24 4.822 22.635 22.71 4.89 23.926h.016C3.433 23.864.15 23.729 0 19.139l1.645-3 2.819 6.586.503 1.172 2.805-9.144-.03.007.016-.03 9.255 2.956-1.396-5.431-.99-3.9 8.82-.569-.615-.51L16.5 2.114 20.159.073l-.003.01zM0 19.089v.026-.029.003zM5.13 5.073c3.561-3.533 8.157-5.621 9.922-3.84 1.762 1.777-.105 6.105-3.673 9.636-3.563 3.532-8.103 5.734-9.864 3.957-1.766-1.777.045-6.217 3.612-9.75l.003-.003z"
     id="path4"
     style="fill:#cc342d;fill-opacity:1" />
</svg>
