<?xml version="1.0" encoding="UTF-8" standalone="no"?>
<svg
   xmlns:dc="http://purl.org/dc/elements/1.1/"
   xmlns:cc="http://creativecommons.org/ns#"
   xmlns:rdf="http://www.w3.org/1999/02/22-rdf-syntax-ns#"
   xmlns:svg="http://www.w3.org/2000/svg"
   xmlns="http://www.w3.org/2000/svg"
   xmlns:sodipodi="http://sodipodi.sourceforge.net/DTD/sodipodi-0.dtd"
   xmlns:inkscape="http://www.inkscape.org/namespaces/inkscape"
   role="img"
   viewBox="0 0 24 24"
   version="1.1"
   id="svg6"
   sodipodi:docname="svg.svg"
   inkscape:version="1.0.2-2 (e86c870879, 2021-01-15)">
  <metadata
     id="metadata12">
    <rdf:RDF>
      <cc:Work
         rdf:about="">
        <dc:format>image/svg+xml</dc:format>
        <dc:type
           rdf:resource="http://purl.org/dc/dcmitype/StillImage" />
      </cc:Work>
    </rdf:RDF>
  </metadata>
  <defs
     id="defs10" />
  <sodipodi:namedview
     pagecolor="#ffffff"
     bordercolor="#666666"
     borderopacity="1"
     objecttolerance="10"
     gridtolerance="10"
     guidetolerance="10"
     inkscape:pageopacity="0"
     inkscape:pageshadow="2"
     inkscape:window-width="699"
     inkscape:window-height="493"
     id="namedview8"
     showgrid="false"
     inkscape:zoom="23.208333"
     inkscape:cx="12"
     inkscape:cy="12"
     inkscape:window-x="0"
     inkscape:window-y="0"
     inkscape:window-maximized="0"
     inkscape:current-layer="svg6" />
  <title
     id="title2">SVG</title>
  <path
     d="M12 0c-1.497 0-2.749.965-3.248 2.17a3.45 3.45 0 00-.238 1.416 3.459 3.459 0 00-1.168-.834 3.508 3.508 0 00-1.463-.256 3.513 3.513 0 00-2.367 1.02c-1.06 1.058-1.263 2.625-.764 3.83.179.432.47.82.82 1.154a3.49 3.49 0 00-1.402.252C.965 9.251 0 10.502 0 12c0 1.497.965 2.749 2.17 3.248.437.181.924.25 1.414.236-.357.338-.65.732-.832 1.17-.499 1.205-.295 2.772.764 3.83 1.058 1.06 2.625 1.263 3.83.764.437-.181.83-.476 1.168-.832-.014.49.057.977.238 1.414C9.251 23.035 10.502 24 12 24c1.497 0 2.749-.965 3.248-2.17a3.45 3.45 0 00.238-1.416c.338.356.73.653 1.168.834 1.205.499 2.772.295 3.83-.764 1.06-1.058 1.263-2.625.764-3.83a3.459 3.459 0 00-.834-1.168 3.45 3.45 0 001.416-.238C23.035 14.749 24 13.498 24 12c0-1.497-.965-2.749-2.17-3.248a3.455 3.455 0 00-1.414-.236c.357-.338.65-.732.832-1.17.499-1.205.295-2.772-.764-3.83a3.513 3.513 0 00-2.367-1.02 3.508 3.508 0 00-1.463.256c-.437.181-.83.475-1.168.832a3.45 3.45 0 00-.238-1.414C14.749.965 13.498 0 12 0zm-.041 1.613a1.902 1.902 0 011.387 3.246v3.893L16.098 6A1.902 1.902 0 1118 7.902l-2.752 2.752h3.893a1.902 1.902 0 110 2.692h-3.893L18 16.098A1.902 1.902 0 1116.098 18l-2.752-2.752v3.893a1.902 1.902 0 11-2.692 0v-3.893L7.902 18A1.902 1.902 0 116 16.098l2.752-2.752H4.859a1.902 1.902 0 110-2.692h3.893L6 7.902A1.902 1.902 0 117.902 6l2.752 2.752V4.859a1.902 1.902 0 011.305-3.246z"
     id="path4"
     style="fill:#ff9e0a;fill-opacity:1" />
</svg>
