<?xml version="1.0" encoding="UTF-8" standalone="no"?>
<svg
   xmlns:dc="http://purl.org/dc/elements/1.1/"
   xmlns:cc="http://creativecommons.org/ns#"
   xmlns:rdf="http://www.w3.org/1999/02/22-rdf-syntax-ns#"
   xmlns:svg="http://www.w3.org/2000/svg"
   xmlns="http://www.w3.org/2000/svg"
   xmlns:sodipodi="http://sodipodi.sourceforge.net/DTD/sodipodi-0.dtd"
   xmlns:inkscape="http://www.inkscape.org/namespaces/inkscape"
   role="img"
   viewBox="0 0 24 24"
   version="1.1"
   id="svg6"
   sodipodi:docname="webpack.svg"
   inkscape:version="1.0.2-2 (e86c870879, 2021-01-15)">
  <metadata
     id="metadata12">
    <rdf:RDF>
      <cc:Work
         rdf:about="">
        <dc:format>image/svg+xml</dc:format>
        <dc:type
           rdf:resource="http://purl.org/dc/dcmitype/StillImage" />
        <dc:title>Webpack</dc:title>
      </cc:Work>
    </rdf:RDF>
  </metadata>
  <defs
     id="defs10" />
  <sodipodi:namedview
     pagecolor="#ffffff"
     bordercolor="#666666"
     borderopacity="1"
     objecttolerance="10"
     gridtolerance="10"
     guidetolerance="10"
     inkscape:pageopacity="0"
     inkscape:pageshadow="2"
     inkscape:window-width="869"
     inkscape:window-height="480"
     id="namedview8"
     showgrid="false"
     inkscape:zoom="23.958333"
     inkscape:cx="12"
     inkscape:cy="12"
     inkscape:window-x="0"
     inkscape:window-y="0"
     inkscape:window-maximized="0"
     inkscape:current-layer="svg6" />
  <title
     id="title2">Webpack</title>
  <path
     d="M22.1987 18.498l-9.7699 5.5022v-4.2855l6.0872-3.3338 3.6826 2.117zm.6683-.6026V6.3884l-3.5752 2.0544v7.396zm-21.0657.6026l9.7699 5.5022v-4.2855L5.484 16.3809l-3.6826 2.117zm-.6683-.6026V6.3884l3.5751 2.0544v7.396zm.4183-12.2515l10.0199-5.644v4.1434L5.152 7.6586l-.0489.028zm20.8975 0l-10.02-5.644v4.1434l6.4192 3.5154.0489.028 3.5518-2.0427zm-10.8775 13.096l-6.0056-3.2873V8.9384l6.0054 3.4525v6.349zm.8575 0l6.0053-3.2873V8.9384l-6.0053 3.4525zM5.9724 8.1845l6.0287-3.3015L18.03 8.1845l-6.0288 3.4665z"
     id="path4"
     style="fill:#2ab2f4;fill-opacity:1" />
</svg>
